<svg width="836" height="1002" viewBox="0 0 836 1002" fill="none" xmlns="http://www.w3.org/2000/svg">
<g clip-path="url(#clip0_1835_354)">
<path opacity="0.05" d="M497.226 299.515C504.726 303.77 511.856 308.529 518.587 313.798C525.171 319.257 531.339 325.284 537.102 331.853C542.704 338.682 547.909 346.084 552.747 354.039C557.449 362.265 561.823 371.041 565.89 380.317C569.882 389.836 573.604 399.827 577.09 410.226C580.529 420.797 583.747 431.706 586.728 442.879C589.667 454.085 592.345 465.462 594.723 476.88C596.983 488.179 598.849 499.397 600.245 510.409C601.393 521.101 601.952 531.453 601.808 541.341C601.255 550.729 599.893 559.532 597.636 567.673C594.877 575.219 591.164 582.062 586.496 588.177C581.368 593.771 575.359 598.726 568.529 603.123C561.509 607.24 553.894 611.025 545.848 614.626C538.03 618.359 530.105 622.223 522.239 626.366C515.069 631.101 508.256 636.406 501.918 642.39C496.581 649.25 491.831 656.901 487.662 665.325C484.422 674.585 481.66 684.227 479.198 694.08C477.19 704.33 475.093 714.427 472.75 724.16C470.282 733.769 467.212 742.681 463.443 750.726C459.138 758.24 453.955 764.69 447.903 770.025C441.178 774.623 433.608 778.066 425.331 780.374C416.49 781.982 407.104 782.54 397.359 782.132C387.317 781.193 377.149 779.425 367.023 776.909C356.894 774.079 346.99 770.64 337.446 766.668C328.116 762.566 319.234 758.044 310.86 753.157C302.77 748.298 295.168 743.163 288.061 737.782C281.152 732.591 274.624 727.23 268.416 721.764C262.232 716.617 256.197 711.449 250.245 706.308C244.104 701.617 237.868 697.044 231.47 692.611C224.694 688.744 217.633 685.061 210.263 681.602C202.427 678.701 194.25 675.994 185.761 673.448C176.863 671.356 167.729 669.315 158.455 667.231C148.967 665.383 139.752 663.34 130.905 661.032C122.13 658.658 113.927 655.82 106.376 652.484C99.1346 648.842 92.6834 644.588 87.0657 639.712C81.8967 634.417 77.6105 628.486 74.2157 621.961C71.288 615.01 69.2175 607.53 67.9765 599.593C67.1256 591.314 67.0092 582.683 67.588 573.783C68.4059 564.658 69.7991 555.369 71.6962 545.998C73.681 536.503 76.0612 527.006 78.7635 517.549C81.4065 508.038 84.2855 498.596 87.3469 489.283C90.2305 479.929 93.2327 470.681 96.3304 461.58C99.1863 452.415 102.099 443.374 105.068 434.454C107.796 425.473 110.579 416.601 113.463 407.855C116.125 399.053 118.925 390.375 121.89 381.857C124.728 373.309 127.802 364.937 131.151 356.788C134.482 348.66 138.171 340.782 142.241 333.211C146.41 325.729 151.042 318.592 156.153 311.839C161.442 305.245 167.138 299.22 173.19 293.766C179.439 288.49 186.045 283.773 192.95 279.624C200.007 275.611 207.331 272.136 214.846 269.179C222.44 266.305 230.179 263.92 237.986 261.989C245.776 260.078 253.587 258.58 261.369 257.485C269.042 256.34 276.639 255.543 284.123 255.111C291.462 254.548 298.681 254.318 305.747 254.403C312.679 254.32 319.489 254.545 326.169 255.059C332.759 255.383 339.275 255.999 345.731 256.883C352.157 257.573 358.59 258.521 365.039 259.743C371.544 260.743 378.126 262.003 384.79 263.516C391.575 264.803 398.491 266.34 405.534 268.121C412.722 269.688 420.049 271.511 427.497 273.597C435.086 275.513 442.772 277.706 450.519 280.229C458.366 282.627 466.227 285.395 474.052 288.572C481.882 291.718 489.619 295.353 497.214 299.515" stroke="url(#paint0_linear_1835_354)" stroke-width="2" stroke-linecap="round"/>
<path opacity="0.09" d="M506.598 320.749C513.606 325.356 520.236 330.439 526.469 336.004C532.561 341.743 538.229 348 543.494 354.771C548.592 361.764 553.279 369.289 557.574 377.327C561.721 385.595 565.502 394.364 568.949 403.591C572.273 413.023 575.282 422.881 577.997 433.086C580.621 443.427 582.952 454.051 584.991 464.87C586.924 475.694 588.535 486.618 589.776 497.53C590.87 508.289 591.527 518.902 591.687 529.255C591.603 539.278 590.917 548.908 589.576 558.024C587.867 566.671 585.417 574.702 582.17 582.06C578.507 588.86 574.035 594.974 568.742 600.378C563.099 605.318 556.727 609.656 549.695 613.461C542.546 617.07 534.927 620.37 526.972 623.501C519.264 626.824 511.479 630.284 503.764 634.009C496.659 638.34 489.864 643.209 483.466 648.706C477.917 655.071 472.844 662.158 468.248 669.957C464.446 678.578 461.064 687.546 457.961 696.688C455.264 706.238 452.533 715.624 449.645 724.657C446.683 733.6 443.276 741.865 439.338 749.299C434.995 756.237 429.956 762.147 424.247 766.954C417.986 771.075 411.062 774.036 403.563 775.877C395.587 777.02 387.165 777.115 378.448 776.213C369.453 774.78 360.346 772.493 351.26 769.447C342.13 766.062 333.186 762.054 324.527 757.523C315.997 752.845 307.843 747.766 300.116 742.337C292.57 736.943 285.442 731.305 278.731 725.475C272.136 719.828 265.876 714.068 259.885 708.256C253.858 702.751 247.975 697.267 242.173 691.841C236.143 686.844 230.036 681.97 223.8 677.245C217.186 673.021 210.337 668.974 203.24 665.13C195.689 661.773 187.853 658.581 179.782 655.528C171.316 652.87 162.674 650.246 153.963 647.589C145.029 645.135 136.405 642.543 128.179 639.751C120.011 636.916 112.407 633.721 105.48 630.131C98.8219 626.295 92.9494 621.971 87.9009 617.148C83.2722 611.981 79.5115 606.297 76.6245 600.139C74.1829 593.613 72.5894 586.639 71.8173 579.302C71.4145 571.647 71.7507 563.685 72.7615 555.502C74.0212 547.08 75.8478 538.505 78.1774 529.851C80.6101 521.036 83.4382 512.197 86.592 503.376C89.7039 494.447 93.0468 485.567 96.5826 476.771C99.9695 467.886 103.468 459.077 107.058 450.389C110.437 441.597 113.877 432.907 117.371 424.336C120.641 415.661 123.96 407.1 127.364 398.679C130.574 390.172 133.902 381.812 137.377 373.63C140.733 365.414 144.292 357.396 148.085 349.634C151.872 341.902 155.96 334.458 160.388 327.353C164.907 320.355 169.821 313.741 175.166 307.561C180.671 301.546 186.51 296.133 192.651 291.315C198.965 286.688 205.576 282.649 212.44 279.192C219.451 275.887 226.66 273.132 234.034 270.906C241.483 268.769 249.041 267.13 256.648 265.936C264.248 264.774 271.854 264.013 279.409 263.646C286.889 263.227 294.288 263.146 301.569 263.401C308.745 263.522 315.784 263.949 322.686 264.655C329.472 265.189 336.135 265.991 342.68 267.055C349.14 267.916 355.528 269.02 361.836 270.374C368.141 271.508 374.424 272.874 380.702 274.49C387.047 275.869 393.431 277.494 399.88 279.352C406.447 280.986 413.109 282.847 419.861 284.968C426.761 286.871 433.756 289.039 440.847 291.473C448.073 293.739 455.368 296.295 462.696 299.19C470.113 301.962 477.517 305.116 484.877 308.67C492.236 312.211 499.494 316.221 506.591 320.742" stroke="url(#paint1_linear_1835_354)" stroke-width="2" stroke-linecap="round" stroke-dasharray="2 3"/>
<path opacity="0.13" d="M514.148 342.665C520.647 347.582 526.766 352.957 532.488 358.756C538.058 364.717 543.209 371.145 547.947 378.046C552.498 385.139 556.641 392.711 560.367 400.737C563.924 408.962 567.095 417.637 569.885 426.7C572.529 435.933 574.813 445.524 576.751 455.405C578.555 465.375 580.013 475.567 581.125 485.885C582.095 496.184 582.684 506.512 582.878 516.755C582.886 526.83 582.446 536.702 581.499 546.259C580.311 555.486 578.544 564.284 576.171 572.537C573.472 580.347 570.116 587.538 566.059 594.057C561.668 600.08 556.581 605.438 550.819 610.113C544.806 614.407 538.196 618.139 531.049 621.382C523.858 624.49 516.295 627.331 508.48 630.025C500.908 632.954 493.287 636.017 485.737 639.344C478.724 643.285 471.963 647.721 465.529 652.726C459.806 658.582 454.472 665.094 449.535 672.246C445.25 680.192 441.348 688.442 437.704 696.835C434.42 705.644 431.155 714.297 427.797 722.589C424.429 730.843 420.742 738.439 416.672 745.246C412.301 751.623 407.419 757.006 402.033 761.33C396.219 765.019 389.894 767.586 383.132 769.051C375.981 769.859 368.477 769.61 360.757 768.385C352.783 766.622 344.715 764.001 336.665 760.613C328.544 756.88 320.574 752.512 312.839 747.623C305.156 742.576 297.792 737.122 290.771 731.347C283.843 725.586 277.256 719.597 271.035 713.452C264.825 707.472 258.899 701.416 253.214 695.331C247.428 689.539 241.758 683.788 236.156 678.12C230.3 672.825 224.383 667.663 218.369 662.663C211.96 658.087 205.37 653.696 198.576 649.476C191.348 645.677 183.894 642.022 176.265 638.502C168.254 635.3 160.133 632.146 151.987 628.977C143.639 625.966 135.612 622.883 128 619.66C120.428 616.416 113.439 612.902 107.094 609.093C100.998 605.086 95.6785 600.707 91.1535 595.952C87.0126 590.91 83.7129 585.464 81.2704 579.647C79.2334 573.514 78.0265 567.032 77.6202 560.251C77.5606 553.179 78.2267 545.869 79.5587 538.36C81.1375 530.621 83.2824 522.744 85.9253 514.785C88.6723 506.646 91.813 498.467 95.2931 490.292C98.7547 481.971 102.454 473.671 106.349 465.427C110.117 457.058 114.019 448.738 118.007 440.508C121.818 432.149 125.704 423.865 129.637 415.693C133.379 407.404 137.175 399.219 141.034 391.167C144.744 383.031 148.541 375.042 152.453 367.246C156.28 359.417 160.276 351.817 164.468 344.479C168.663 337.186 173.114 330.199 177.852 323.596C182.676 317.094 187.839 311.013 193.365 305.393C199.044 299.955 204.984 295.132 211.164 290.928C217.503 286.927 224.072 283.52 230.835 280.701C237.74 278.053 244.797 275.96 251.976 274.399C259.236 272.934 266.565 271.966 273.91 271.446C281.279 270.953 288.63 270.868 295.917 271.148C303.164 271.393 310.319 271.958 317.352 272.832C324.315 273.581 331.152 274.608 337.847 275.893C344.464 277.001 350.958 278.35 357.325 279.921C363.654 281.293 369.888 282.883 376.047 284.675C382.213 286.253 388.34 288.048 394.456 290.049C400.635 291.823 406.84 293.808 413.076 296.021C419.432 298.006 425.843 300.222 432.322 302.671C438.943 304.932 445.63 307.437 452.375 310.218C459.241 312.839 466.145 315.754 473.069 318.997C480.059 322.14 487.022 325.651 493.906 329.564C500.792 333.452 507.555 337.802 514.142 342.658" stroke="url(#paint2_linear_1835_354)" stroke-width="2" stroke-linecap="round" stroke-dasharray="5 6"/>
<path opacity="0.16" d="M519.681 364.957C525.649 370.147 531.241 375.74 536.427 381.725C541.466 387.839 546.073 394.386 550.261 401.335C554.258 408.444 557.823 415.986 560.966 423.91C563.923 432.001 566.459 440.463 568.592 449.261C570.553 458.183 572.124 467.398 573.3 476.823C574.313 486.311 574.947 495.941 575.186 505.628C575.262 515.258 574.931 524.854 574.172 534.312C573.22 543.58 571.807 552.603 569.907 561.256C567.763 569.603 565.098 577.486 561.86 584.82C558.365 591.738 554.273 598.059 549.59 603.714C544.645 608.946 539.117 613.539 533.028 617.509C526.774 621.161 520.03 624.302 512.869 627.002C505.705 629.638 498.259 632.051 490.619 634.331C483.214 636.89 475.786 639.586 468.415 642.525C461.512 646.066 454.814 650.072 448.378 654.589C442.533 659.925 437.002 665.844 431.785 672.334C427.119 679.585 422.786 687.099 418.708 694.724C414.937 702.772 411.225 710.646 407.496 718.194C403.781 725.73 399.873 732.652 395.715 738.836C391.343 744.649 386.613 749.528 381.534 753.412C376.131 756.711 370.356 758.954 364.278 760.126C357.885 760.683 351.241 760.228 344.442 758.802C337.427 756.866 330.351 754.076 323.308 750.529C316.169 746.624 309.15 742.097 302.336 737.038C295.518 731.807 288.943 726.17 282.66 720.213C276.397 714.251 270.404 708.073 264.701 701.751C258.963 695.563 253.437 689.32 248.105 683.057C242.624 677.044 237.23 671.089 231.891 665.225C226.284 659.686 220.618 654.278 214.865 649.02C208.734 644.134 202.445 639.407 195.995 634.85C189.135 630.635 182.106 626.563 174.939 622.603C167.423 618.917 159.842 615.278 152.286 611.642C144.524 608.145 137.109 604.615 130.106 601.018C123.144 597.401 116.738 593.601 110.972 589.611C105.416 585.458 100.607 581.038 96.5659 576.347C92.8619 571.411 89.9785 566.188 87.9085 560.683C86.2047 554.913 85.307 548.865 85.1737 542.604C85.3747 536.078 86.274 529.354 87.8268 522.473C89.605 515.375 91.9491 508.152 94.7874 500.856C97.7389 493.368 101.097 485.837 104.782 478.289C108.475 470.571 112.427 462.863 116.564 455.184C120.624 447.353 124.819 439.557 129.119 431.815C133.275 423.936 137.511 416.121 141.804 408.385C145.937 400.534 150.138 392.776 154.381 385.153C158.504 377.44 162.718 369.881 167.025 362.528C171.257 355.131 175.634 347.98 180.187 341.117C184.726 334.296 189.493 327.804 194.488 321.703C199.572 315.725 204.936 310.179 210.602 305.126C216.397 300.252 222.397 296.007 228.563 292.386C234.888 288.968 241.375 286.154 247.997 283.933C254.75 281.879 261.616 280.389 268.557 279.424C275.588 278.57 282.65 278.197 289.709 278.274C296.795 278.387 303.856 278.889 310.838 279.766C317.81 280.585 324.685 281.737 331.445 283.169C338.166 284.487 344.757 286.063 351.216 287.866C357.632 289.503 363.931 291.356 370.102 293.411C376.261 295.267 382.331 297.319 388.317 299.541C394.329 301.558 400.3 303.758 406.233 306.15C412.246 308.319 418.26 310.685 424.281 313.243C430.422 315.604 436.594 318.174 442.798 320.97C449.141 323.58 455.513 326.442 461.915 329.555C468.429 332.522 474.952 335.789 481.451 339.369C488.019 342.866 494.533 346.708 500.946 350.941C507.353 355.167 513.61 359.82 519.676 364.949" stroke="url(#paint3_linear_1835_354)" stroke-width="2" stroke-linecap="round" stroke-dasharray="1 10"/>
<path opacity="0.2" d="M523.026 387.269C528.471 392.672 533.512 398.432 538.15 404.536C542.636 410.745 546.693 417.324 550.309 424.251C553.746 431.31 556.734 438.721 559.286 446.456C561.643 454.311 563.559 462.483 565.051 470.896C566.353 479.407 567.233 488.129 567.7 496.992C567.982 505.876 567.853 514.838 567.316 523.782C566.59 532.656 565.444 541.426 563.869 549.992C562.098 558.378 559.869 566.463 557.171 574.163C554.265 581.563 550.866 588.487 546.962 594.868C542.842 600.884 538.208 606.31 533.064 611.114C527.727 615.558 521.909 619.414 515.635 622.687C509.253 625.735 502.489 628.32 495.394 630.507C488.328 632.706 481.051 634.702 473.623 636.605C466.414 638.81 459.194 641.147 452.038 643.706C445.26 646.874 438.647 650.441 432.253 654.477C426.331 659.274 420.666 664.601 415.257 670.425C410.294 676.964 405.625 683.727 401.204 690.587C397.044 697.848 392.98 704.945 388.96 711.744C384.981 718.558 380.902 724.809 376.68 730.376C372.318 735.634 367.745 740.031 362.945 743.493C357.909 746.456 352.644 748.413 347.174 749.37C341.462 749.768 335.599 749.185 329.64 747.691C323.5 745.704 317.342 742.882 311.227 739.324C305.008 735.413 298.907 730.887 292.964 725.824C286.979 720.577 281.192 714.927 275.642 708.951C270.053 702.948 264.676 696.73 259.526 690.359C254.28 684.101 249.206 677.767 244.275 671.428C239.16 665.296 234.106 659.212 229.082 653.211C223.782 647.488 218.417 641.877 212.986 636.413C207.181 631.253 201.258 626.24 195.197 621.375C188.753 616.801 182.178 612.35 175.52 608.002C168.525 603.884 161.512 599.82 154.54 595.773C147.394 591.832 140.582 587.925 134.194 583.994C127.821 580.054 122 576.011 116.778 571.856C111.746 567.573 107.419 563.113 103.821 558.481C100.522 553.643 97.9968 548.606 96.2426 543.382C94.8282 537.915 94.1698 532.271 94.24 526.455C94.62 520.416 95.6741 514.219 97.3514 507.916C99.2548 501.39 101.707 494.772 104.644 488.094C107.705 481.213 111.168 474.291 114.964 467.35C118.795 460.231 122.88 453.1 127.181 445.981C131.423 438.7 135.83 431.432 140.341 424.214C144.754 416.837 149.258 409.508 153.819 402.27C158.271 394.89 162.784 387.608 167.349 380.46C171.826 373.221 176.369 366.139 181.007 359.26C185.587 352.354 190.289 345.695 195.121 339.331C199.963 333.014 204.975 327.039 210.196 321.467C215.472 316.017 220.989 311.023 226.746 306.516C232.625 302.205 238.642 298.518 244.759 295.447C251.023 292.577 257.39 290.311 263.839 288.63C270.413 287.133 277.053 286.179 283.726 285.748C290.488 285.428 297.255 285.585 303.996 286.187C310.779 286.824 317.516 287.856 324.173 289.23C330.835 290.579 337.407 292.236 343.859 294.154C350.299 295.986 356.629 298.043 362.817 300.324C369.002 302.45 375.072 304.762 381.022 307.265C386.992 309.566 392.868 312.051 398.65 314.689C404.491 317.133 410.274 319.739 416.013 322.507C421.832 325.07 427.641 327.816 433.441 330.734C439.349 333.471 445.269 336.398 451.193 339.532C457.246 342.503 463.303 345.7 469.352 349.152C475.509 352.476 481.639 356.076 487.713 359.972C493.849 363.799 499.908 367.956 505.829 372.479C511.753 376.99 517.493 381.909 523.021 387.261" stroke="url(#paint4_linear_1835_354)" stroke-width="2" stroke-linecap="round" stroke-dasharray="8 8"/>
<path opacity="0.24" d="M524.107 409.188C529.003 414.763 533.497 420.62 537.578 426.776C541.517 433.007 545.011 439.552 548.067 446.369C550.939 453.293 553.357 460.497 555.332 467.944C557.099 475.491 558.423 483.262 559.307 491.205C559.998 499.219 560.244 507.359 560.063 515.563C559.699 523.763 558.903 531.961 557.681 540.093C556.279 548.13 554.449 556.001 552.193 563.637C549.755 571.077 546.881 578.187 543.566 584.897C540.067 591.334 536.118 597.297 531.728 602.731C527.165 607.835 522.153 612.394 516.729 616.379C511.155 620.062 505.188 623.21 498.858 625.839C492.464 628.31 485.765 630.372 478.808 632.099C471.907 633.876 464.845 635.498 457.674 637.047C450.692 638.917 443.705 640.909 436.77 643.115C430.146 645.889 423.656 649.033 417.342 652.586C411.396 656.856 405.663 661.585 400.125 666.742C394.943 672.574 390.039 678.59 385.366 684.683C380.916 691.161 376.594 697.481 372.356 703.526C368.168 709.625 363.976 715.205 359.73 720.171C355.404 724.89 350.97 728.813 346.434 731.899C339.313 735.405 324.273 737.047 316.47 735.251C311.11 733.319 305.768 730.584 300.49 727.135C295.109 723.339 289.835 718.946 284.703 714.027C279.499 708.914 274.457 703.386 269.606 697.536C264.671 691.641 259.902 685.508 255.311 679.22C250.583 672.995 245.98 666.704 241.48 660.379C236.769 654.224 232.098 648.089 227.445 642.025C222.491 636.19 217.496 630.446 212.428 624.831C207.017 619.458 201.489 614.206 195.866 609.095C189.882 604.214 183.798 599.446 177.664 594.774C171.225 590.284 164.788 585.853 158.434 581.447C151.904 577.145 145.712 572.895 139.934 568.688C134.147 564.464 128.895 560.21 124.205 555.919C119.68 551.521 115.81 547.018 112.617 542.429C109.697 537.675 107.493 532.794 106.011 527.803C104.835 522.61 104.366 517.295 104.584 511.877C105.083 506.252 106.231 500.524 107.972 494.725C109.922 488.714 112.41 482.64 115.365 476.52C118.454 470.199 121.943 463.838 125.769 457.469C129.642 450.905 133.793 444.335 138.157 437.772C142.506 431.027 147.022 424.294 151.67 417.602C156.254 410.752 160.939 403.94 165.697 397.21C170.372 390.343 175.125 383.565 179.94 376.925C184.678 370.195 189.491 363.626 194.379 357.258C199.232 350.878 204.181 344.739 209.24 338.902C214.316 333.116 219.538 327.685 224.9 322.65C230.332 317.749 235.948 313.292 241.758 309.334C247.659 305.569 253.641 302.412 259.692 299.861C265.85 297.513 272.061 295.759 278.32 294.572C284.682 293.56 291.068 293.087 297.453 293.126C303.924 293.289 310.373 293.905 316.78 294.955C323.236 296.058 329.629 297.536 335.938 299.349C342.27 301.149 348.514 303.237 354.632 305.581C360.773 307.854 366.807 310.343 372.711 313.041C378.632 315.6 384.445 318.335 390.143 321.232C395.886 323.965 401.536 326.847 407.102 329.874C412.724 332.721 418.301 335.711 423.814 338.846C429.422 341.801 434.994 344.914 440.546 348.179C446.205 351.287 451.856 354.569 457.476 358.039C463.219 361.363 468.939 364.91 474.625 368.675C480.403 372.331 486.127 376.247 491.767 380.437C497.464 384.567 503.053 389.005 508.479 393.78C513.897 398.538 519.117 403.662 524.103 409.18" stroke="url(#paint5_linear_1835_354)" stroke-width="2" stroke-linecap="round" stroke-dasharray="10 3"/>
<path opacity="0.28" d="M522.909 430.316C527.254 435.977 531.202 441.881 534.726 448.01C538.112 454.199 541.058 460.622 543.557 467.261C545.894 473.971 547.76 480.888 549.181 487.983C550.405 495.135 551.181 502.436 551.507 509.839C551.646 517.275 551.341 524.762 550.596 532.239C549.669 539.7 548.314 547.088 546.54 554.34C544.588 561.497 542.214 568.442 539.437 575.11C536.49 581.591 533.135 587.739 529.371 593.465C525.449 598.942 521.133 603.964 516.44 608.482C511.594 612.72 506.38 616.451 500.818 619.657C495.144 622.632 489.161 625.123 482.881 627.163C476.568 629.102 470.021 630.689 463.281 631.993C456.593 633.39 449.784 634.666 442.898 635.879C436.17 637.429 429.437 639.098 422.758 640.956C416.322 643.365 409.978 646.093 403.779 649.173C397.87 652.91 392.116 657.044 386.53 661.559C381.212 666.682 376.157 671.961 371.321 677.298C366.665 683.002 362.163 688.569 357.789 693.878C353.459 699.263 349.199 704.192 344.957 708.57C338.532 714.501 325.431 722.075 318.741 723.512C311.85 723.439 297.986 718.62 291.118 714.091C286.473 710.519 281.932 706.369 277.531 701.701C273.033 696.835 268.674 691.558 264.466 685.944C260.15 680.26 255.961 674.337 251.908 668.238C247.694 662.17 243.564 656.008 239.512 649.802C235.237 643.704 230.976 637.618 226.718 631.58C222.169 625.699 217.57 619.899 212.917 614.199C207.927 608.677 202.848 603.263 197.696 597.967C192.206 592.85 186.651 587.829 181.068 582.898C175.209 578.108 169.374 573.374 163.634 568.677C157.726 564.064 152.159 559.542 146.973 555.094C141.776 550.642 137.082 546.211 132.907 541.792C128.871 537.294 125.444 532.769 122.638 528.203C119.119 521.141 115.788 506.48 115.96 498.868C116.549 493.61 117.737 488.282 119.479 482.913C121.436 477.352 123.9 471.753 126.817 466.128C129.874 460.315 133.325 454.474 137.111 448.621C140.969 442.581 145.105 436.535 149.467 430.496C153.838 424.279 158.399 418.075 163.104 411.913C167.766 405.587 172.553 399.303 177.439 393.091C182.264 386.761 187.176 380.518 192.145 374.406C197.078 368.212 202.075 362.184 207.153 356.362C212.196 350.527 217.337 344.939 222.56 339.644C227.792 334.413 233.146 329.526 238.611 325.045C244.13 320.685 249.797 316.774 255.6 313.345C261.501 310.115 267.416 307.47 273.344 305.401C279.364 303.543 285.404 302.257 291.441 301.515C297.565 300.947 303.688 300.904 309.771 301.343C315.934 301.92 322.049 302.936 328.104 304.366C334.215 305.858 340.253 307.712 346.203 309.894C352.19 312.071 358.079 314.533 363.865 317.243C369.679 319.884 375.386 322.745 380.976 325.803C386.609 328.737 392.137 331.851 397.559 335.1C403.04 338.216 408.434 341.468 413.739 344.845C419.131 348.069 424.453 351.42 429.706 354.898C435.065 358.223 440.382 361.692 445.64 365.294C451.02 368.755 456.365 372.377 461.666 376.163C467.072 379.836 472.433 383.693 477.729 387.753C483.12 391.722 488.424 395.933 493.618 400.377C498.853 404.784 503.952 409.453 508.874 414.424C513.784 419.39 518.477 424.675 522.902 430.3" stroke="url(#paint6_linear_1835_354)" stroke-width="2" stroke-linecap="round" stroke-dasharray="4 8"/>
<path opacity="0.32" d="M519.513 450.205C523.311 455.906 526.711 461.787 529.683 467.812C532.536 473.899 534.955 480.141 536.926 486.526C538.743 492.956 540.101 499.523 541.013 506.184C541.74 512.883 542.024 519.656 541.864 526.457C541.526 533.256 540.741 540.045 539.545 546.766C538.164 553.44 536.361 559.991 534.154 566.359C531.787 572.624 529.022 578.645 525.874 584.361C522.571 589.907 518.896 595.097 514.849 599.883C510.677 604.45 506.159 608.577 501.301 612.231C496.338 615.67 491.056 618.639 485.496 621.124C479.851 623.451 473.962 625.357 467.833 626.859C461.689 628.32 455.365 629.487 448.897 630.414C442.467 631.469 435.952 632.422 429.387 633.337C422.935 634.597 416.489 635.95 410.081 637.486C403.852 639.524 397.697 641.846 391.658 644.465C385.826 647.687 380.125 651.249 374.547 655.125C369.18 659.565 364.043 664.121 359.132 668.728C354.355 673.682 349.748 678.509 345.297 683.11C340.897 687.806 336.607 692.096 332.406 695.901C326.107 701.1 313.685 707.742 307.55 708.993C301.335 708.915 289.11 704.506 283.164 700.348C279.141 697.064 275.234 693.21 271.457 688.877C267.568 684.339 263.816 679.395 260.182 674.124C256.426 668.748 252.779 663.125 249.223 657.309C245.496 651.489 241.838 645.549 238.222 639.539C234.388 633.606 230.551 627.637 226.715 621.696C222.589 615.868 218.422 610.083 214.196 604.366C209.669 598.786 205.066 593.28 200.411 587.868C195.449 582.594 190.437 577.395 185.425 572.271C180.16 567.257 174.933 562.295 169.818 557.387C164.551 552.524 159.592 547.786 155.001 543.152C150.397 538.513 146.245 533.947 142.578 529.424C137.52 522.574 130.541 508.794 128.709 501.823C127.836 494.64 129.397 479.962 131.727 472.467C133.651 467.303 136.062 462.106 138.899 456.916C141.881 451.551 145.244 446.172 148.943 440.786C152.725 435.237 156.788 429.683 161.089 424.137C165.426 418.427 169.959 412.741 174.653 407.083C179.335 401.287 184.153 395.527 189.077 389.852C193.975 384.054 198.965 378.355 204.031 372.788C209.074 367.155 214.189 361.675 219.366 356.417C224.537 351.143 229.778 346.117 235.096 341.383C240.427 336.711 245.852 332.381 251.359 328.437C256.905 324.629 262.568 321.25 268.326 318.346C274.158 315.622 279.969 313.471 285.751 311.867C291.613 310.461 297.442 309.594 303.244 309.254C309.117 309.086 314.943 309.416 320.718 310.207C326.56 311.134 332.339 312.489 338.039 314.229C343.798 316.052 349.472 318.217 355.053 320.697C360.675 323.191 366.209 325.962 371.627 328.962C377.098 331.924 382.472 335.091 387.725 338.443C393.043 341.714 398.263 345.134 403.383 348.693C408.564 352.136 413.671 355.71 418.687 359.401C423.798 362.963 428.831 366.648 433.799 370.441C438.871 374.102 443.884 377.888 448.838 381.799C453.898 385.587 458.906 389.516 463.847 393.601C468.889 397.575 473.871 401.721 478.75 406.054C483.72 410.298 488.58 414.76 493.304 419.422C498.073 424.05 502.681 428.913 507.079 434.031C511.475 439.141 515.629 444.525 519.502 450.199" stroke="url(#paint7_linear_1835_354)" stroke-width="2" stroke-linecap="round" stroke-dasharray="1 9"/>
<path opacity="0.35" d="M514.074 468.501C517.334 474.168 520.192 479.949 522.653 485.822C524.995 491.729 526.903 497.731 528.387 503.796C529.715 509.896 530.616 516.052 531.076 522.24C531.372 528.436 531.227 534.637 530.657 540.801C529.926 546.946 528.769 553.017 527.205 558.954C525.482 564.843 523.359 570.56 520.854 576.061C518.197 581.449 515.171 586.572 511.798 591.378C508.29 596.029 504.433 600.327 500.273 604.231C495.989 607.958 491.402 611.264 486.536 614.133C481.588 616.84 476.374 619.125 470.92 620.981C465.417 622.73 459.701 624.116 453.814 625.154C447.919 626.194 441.872 626.991 435.714 627.589C429.6 628.341 423.405 629.005 417.172 629.661C411.035 630.631 404.883 631.706 398.771 632.927C392.789 634.609 386.856 636.534 381.007 638.721C375.309 641.446 369.707 644.448 364.208 647.716C358.852 651.496 353.725 655.368 348.801 659.275C343.977 663.504 339.343 667.624 334.873 671.541C330.451 675.565 326.173 679.245 322.034 682.507C315.873 686.992 304.047 692.747 298.369 693.809C292.706 693.744 281.827 689.794 276.629 686.043C273.125 683.078 269.73 679.585 266.473 675.629C263.122 671.47 259.873 666.923 256.741 662.039C253.477 657.044 250.296 651.787 247.204 646.321C243.938 640.83 240.714 635.19 237.528 629.456C234.118 623.747 230.703 617.985 227.283 612.206C223.601 606.51 219.874 600.817 216.103 595.164C212.052 589.599 207.943 584.088 203.797 578.642C199.372 573.283 194.927 567.986 190.491 562.75C185.835 557.585 181.232 552.48 176.731 547.409C172.096 542.386 167.756 537.492 163.746 532.726C159.716 527.956 156.109 523.28 152.932 518.694C148.556 511.774 142.612 498.095 141.124 491.294C140.501 484.361 142.249 470.398 144.547 463.343C146.423 458.516 148.756 453.679 151.489 448.86C154.373 443.887 157.619 438.923 161.198 433.967C164.863 428.857 168.817 423.759 173.014 418.675C177.255 413.45 181.713 408.246 186.334 403.098C190.979 397.806 195.759 392.567 200.666 387.422C205.559 382.16 210.565 377.006 215.649 371.995C220.721 366.913 225.87 362.004 231.087 357.305C236.302 352.598 241.586 348.139 246.924 343.968C252.281 339.866 257.71 336.084 263.199 332.681C268.716 329.408 274.313 326.555 279.988 324.14C285.707 321.916 291.373 320.222 296.981 319.042C302.643 318.058 308.256 317.585 313.793 317.594C319.399 317.786 324.933 318.441 330.387 319.532C335.908 320.761 341.336 322.385 346.679 324.391C352.081 326.473 357.39 328.885 362.593 331.603C367.85 334.352 373.013 337.358 378.065 340.588C383.178 343.81 388.199 347.224 393.101 350.809C398.08 354.336 402.964 358.018 407.746 361.831C412.606 365.557 417.387 369.397 422.09 373.352C426.876 377.209 431.589 381.17 436.228 385.225C440.97 389.187 445.65 393.258 450.249 397.435C454.96 401.516 459.595 405.72 464.153 410.046C468.8 414.292 473.361 418.692 477.814 423.232C482.334 427.717 486.737 432.373 490.979 437.211C495.265 442.01 499.359 447.011 503.244 452.217C507.116 457.409 510.733 462.838 514.071 468.492" stroke="url(#paint8_linear_1835_354)" stroke-width="2" stroke-linecap="round" stroke-dasharray="11 8"/>
<path opacity="0.39" d="M506.84 484.849C509.575 490.43 511.922 496.056 513.884 501.706C515.743 507.378 517.182 513.082 518.224 518.787C519.123 524.503 519.604 530.214 519.679 535.883C519.6 541.556 519.111 547.17 518.22 552.676C517.17 558.16 515.732 563.517 513.914 568.698C511.957 573.818 509.622 578.735 506.937 583.398C504.113 587.964 500.96 592.244 497.497 596.208C493.906 600.036 490.017 603.517 485.851 606.622C481.592 609.582 477.065 612.164 472.303 614.35C467.479 616.414 462.432 618.098 457.191 619.415C451.91 620.667 446.455 621.603 440.868 622.249C435.262 622.935 429.551 623.417 423.749 623.727C417.967 624.214 412.126 624.641 406.254 625.047C400.446 625.766 394.631 626.577 388.83 627.502C383.11 628.864 377.438 630.414 371.819 632.18C366.299 634.424 360.846 636.906 355.482 639.597C350.211 642.74 345.147 645.966 340.285 649.205C335.486 652.748 330.882 656.187 326.454 659.463C319.95 664.399 307.769 672.479 302.063 675.313C291.207 677.752 276.133 674.663 271.526 671.332C266.949 667.135 258.292 656.195 254.158 649.672C251.322 645.097 248.558 640.255 245.857 635.192C242.999 630.07 240.171 624.788 237.381 619.381C234.382 613.972 231.374 608.474 228.358 602.941C225.103 597.431 221.818 591.908 218.508 586.391C214.936 580.928 211.33 575.472 207.699 570.066C203.824 564.711 199.939 559.394 196.082 554.125C192.027 548.907 188.033 543.721 184.148 538.576C180.149 533.454 176.407 528.479 172.973 523.639C169.519 518.785 166.434 514.054 163.751 509.431C160.045 502.483 155.121 488.927 153.983 482.274C153.6 475.546 155.549 462.182 157.811 455.515C159.634 450.966 161.876 446.44 164.507 441.95C167.273 437.325 170.388 432.726 173.825 428.152C177.353 423.45 181.167 418.771 185.222 414.124C189.343 409.354 193.669 404.615 198.18 399.937C202.721 395.144 207.412 390.419 212.238 385.776C217.074 381.049 222.014 376.436 227.048 371.967C232.088 367.442 237.211 363.099 242.393 358.952C247.576 354.814 252.827 350.916 258.126 347.297C263.432 343.749 268.801 340.514 274.208 337.633C279.65 334.881 285.138 332.527 290.669 330.598C296.235 328.843 301.721 327.575 307.118 326.796C312.561 326.198 317.929 326.068 323.193 326.403C328.518 326.897 333.743 327.828 338.88 329.167C344.056 330.651 349.145 332.506 354.134 334.708C359.169 337 364.107 339.611 368.938 342.497C373.826 345.435 378.611 348.62 383.296 352.025C388.037 355.437 392.68 359.031 397.23 362.79C401.839 366.528 406.367 370.399 410.795 374.401C415.312 378.347 419.742 382.402 424.086 386.566C428.523 390.655 432.89 394.841 437.166 399.118C441.545 403.319 445.854 407.617 450.072 412.005C454.392 416.318 458.628 420.748 462.766 425.271C466.992 429.739 471.114 434.319 475.108 439.025C479.175 443.689 483.09 448.493 486.843 453.431C490.628 458.352 494.217 463.422 497.579 468.657C500.928 473.877 504.024 479.275 506.829 484.842" stroke="url(#paint9_linear_1835_354)" stroke-width="2" stroke-linecap="round" stroke-dasharray="9 8"/>
<path opacity="0.43" d="M498.096 499.008C500.333 504.432 502.202 509.844 503.71 515.232C505.111 520.625 506.14 525.979 506.779 531.286C507.69 541.906 507.039 552.215 504.904 561.999C502.231 571.631 498.126 580.524 492.725 588.42C486.872 595.946 479.839 602.271 471.806 607.209C463.465 611.715 454.252 614.843 444.383 616.62C434.367 618.299 423.83 619.02 412.976 619.05C402.162 619.773 391.165 620.466 380.195 621.432C374.78 622.47 369.378 623.675 364.026 625.053C358.731 626.853 353.478 628.834 348.301 630.985C343.169 633.54 338.233 636.15 333.486 638.771C328.776 641.673 324.25 644.478 319.911 647.143C311.312 652.792 303.393 657.241 296.19 660.154C288.96 662.534 282.367 662.924 276.451 661.292C270.381 658.768 264.881 654.29 259.94 648.109C254.668 641.257 249.777 633.048 245.218 623.838C240.051 614.36 234.964 604.21 229.937 593.712C224.045 583.231 218.05 572.577 212.031 561.952C208.697 556.683 205.364 551.423 202.08 546.192C198.612 540.995 195.218 535.814 191.935 530.664C188.547 525.527 185.401 520.528 182.523 515.663C179.628 510.801 177.062 506.064 174.843 501.442C170.6 492.118 168.008 483.172 167.113 474.608C166.809 465.785 168.274 457.218 171.383 448.905C175.097 440.225 180.305 431.694 186.765 423.353C193.624 414.591 201.514 405.979 210.18 397.62C219.022 388.906 228.464 380.533 238.299 372.689C248.181 364.73 258.394 357.506 268.769 351.289C273.974 348.276 279.219 345.571 284.501 343.201C289.789 340.946 295.119 339.071 300.465 337.586C305.835 336.278 311.112 335.411 316.28 334.997C321.47 334.749 326.566 334.935 331.556 335.538C341.621 337.232 351.296 340.49 360.513 345.079C369.902 350.075 378.894 356.188 387.449 363.182C396.24 370.261 404.668 378.041 412.707 386.321C421.06 394.478 429.113 403.06 436.806 411.967C444.857 420.665 452.596 429.718 459.912 439.078C467.537 448.272 474.671 457.88 481.157 467.852C484.432 472.815 487.519 477.903 490.369 483.093C493.208 488.276 495.796 493.582 498.095 498.999" stroke="url(#paint10_linear_1835_354)" stroke-width="2" stroke-linecap="round" stroke-dasharray="8 3"/>
<path opacity="0.47" d="M488.195 510.81C491.663 521.243 493.73 531.417 494.43 541.187C494.711 550.931 493.566 560.178 491.082 568.744C488.135 577.144 483.9 584.693 478.525 591.202C472.766 597.397 465.957 602.415 458.303 606.145C450.381 609.563 441.725 611.756 432.516 612.776C423.175 613.814 413.384 614.053 403.343 613.704C393.275 614.05 383.036 614.362 372.801 614.878C362.614 616.741 352.471 619.152 342.548 622.099C332.702 626.428 323.541 630.767 315.116 634.803C306.747 639.323 299.081 642.849 292.169 645.102C285.253 646.991 279.031 647.194 273.518 645.683C267.899 643.458 262.882 639.5 258.445 634.031C253.704 627.95 249.362 620.592 245.358 612.245C240.81 603.586 236.387 594.216 232.043 584.398C226.966 574.511 221.853 564.35 216.771 554.098C210.963 543.883 205.294 533.633 199.995 523.466C194.333 513.313 189.652 503.658 186.114 494.526C182.75 485.322 180.832 476.533 180.398 468.176C180.458 459.628 182.092 451.39 185.186 443.478C188.821 435.283 193.811 427.306 199.972 419.593C206.52 411.536 214.051 403.711 222.348 396.193C230.832 388.414 239.934 381.006 249.436 374.167C259.005 367.262 268.905 361.101 278.955 355.916C289.031 351.004 299.244 347.301 309.486 345.044C319.765 343.388 329.616 343.394 338.976 344.931C348.409 347.077 357.408 350.644 365.934 355.457C374.591 360.671 382.843 366.923 390.65 374.02C398.67 381.254 406.341 389.159 413.616 397.55C421.182 405.897 428.435 414.654 435.335 423.708C442.537 432.637 449.412 441.87 455.84 451.345C462.519 460.715 468.702 470.391 474.199 480.306C479.764 490.19 484.505 500.383 488.195 510.801" stroke="url(#paint11_linear_1835_354)" stroke-width="2" stroke-linecap="round" stroke-dasharray="2 7"/>
<path opacity="0.51" d="M477.508 520.179C480.114 530.085 481.457 539.554 481.571 548.473C481.323 557.336 479.812 565.559 477.119 572.984C474.038 580.255 469.82 586.613 464.618 591.917C459.081 596.961 452.649 600.889 445.491 603.633C438.104 606.171 430.087 607.623 421.609 608.06C412.997 608.611 404 608.477 394.777 607.853C385.486 607.885 376.018 607.871 366.523 607.998C356.992 609.287 347.466 610.992 338.088 613.089C328.709 616.373 319.942 619.636 311.877 622.639C303.818 626.111 296.456 628.764 289.839 630.369C283.232 631.752 277.329 631.731 272.137 630.271C266.869 628.252 262.217 624.739 258.143 619.884C253.824 614.504 249.923 607.939 246.367 600.42C242.343 592.586 238.494 584.01 234.782 574.92C230.45 565.701 226.147 556.119 221.953 546.36C217.156 536.579 212.546 526.676 208.326 516.784C203.787 506.89 200.131 497.455 197.49 488.515C194.973 479.524 193.721 470.959 193.76 462.839C194.199 454.59 196.017 446.706 199.127 439.178C202.7 431.45 207.503 423.997 213.375 416.873C219.595 409.503 226.753 402.415 234.635 395.697C242.722 388.803 251.399 382.322 260.48 376.437C269.641 370.536 279.106 365.373 288.731 361.151C298.355 357.204 308.093 354.383 317.821 352.919C327.544 351.986 336.804 352.557 345.555 354.516C354.338 357.033 362.667 360.85 370.499 365.779C378.426 371.118 385.946 377.428 393.025 384.506C400.272 391.78 407.167 399.681 413.686 408.057C420.436 416.454 426.881 425.246 432.952 434.293C439.289 443.297 445.269 452.565 450.796 461.997C456.527 471.387 461.751 480.985 466.309 490.702C470.903 500.402 474.698 510.263 477.508 520.179Z" stroke="url(#paint12_linear_1835_354)" stroke-width="2" stroke-linecap="round" stroke-dasharray="1 8"/>
<path opacity="0.54" d="M466.377 527.144C468.215 536.439 468.924 545.173 468.556 553.236C467.891 561.231 466.12 568.481 463.331 574.886C460.225 581.133 456.134 586.448 451.208 590.738C446.005 594.819 440.03 597.861 433.454 599.842C426.666 601.691 419.34 602.59 411.628 602.615C403.779 602.806 395.585 602.41 387.184 601.598C378.674 601.381 369.99 601.107 361.256 600.908C352.409 601.688 343.54 602.76 334.782 604.098C325.938 606.425 317.657 608.725 310.008 610.782C302.341 613.291 295.332 615.122 289.039 616.112C282.729 616.975 277.122 616.694 272.206 615.214C267.233 613.319 262.868 610.148 259.083 605.813C255.093 601.035 251.526 595.179 248.34 588.437C244.76 581.38 241.408 573.585 238.259 565.245C234.589 556.74 231.041 547.818 227.664 538.642C223.794 529.401 220.161 519.974 216.95 510.491C213.456 500.995 210.767 491.892 208.966 483.249C207.257 474.578 206.645 466.314 207.144 458.501C207.96 450.616 209.984 443.093 213.141 435.979C216.681 428.726 221.308 421.798 226.902 415.241C232.809 408.53 239.571 402.153 247.011 396.203C254.647 390.135 262.841 384.538 271.433 379.541C280.092 374.585 289.042 370.354 298.134 367.024C307.222 363.96 316.397 361.952 325.536 361.187C334.637 360.907 343.267 361.978 351.391 364.28C359.493 367.078 367.138 371.059 374.295 376.051C381.502 381.419 388.291 387.68 394.652 394.654C401.137 401.843 407.273 409.635 413.028 417.859C418.972 426.17 424.593 434.847 429.841 443.752C435.293 452.664 440.389 461.806 445.032 471.045C449.835 480.289 454.123 489.652 457.777 499.036C461.448 508.421 464.371 517.828 466.377 527.144Z" stroke="url(#paint13_linear_1835_354)" stroke-width="2" stroke-linecap="round" stroke-dasharray="6 4"/>
<path opacity="0.58" d="M455.153 531.83C456.296 540.455 456.481 548.416 455.736 555.645C454.742 562.802 452.81 569.163 450.022 574.651C446.968 580.01 443.092 584.448 438.511 587.911C433.702 591.222 428.241 593.566 422.276 594.965C416.122 596.309 409.501 596.821 402.564 596.577C395.464 596.523 388.062 595.968 380.484 595.036C372.754 594.637 364.841 594.148 356.862 593.676C348.743 594.016 340.572 594.528 332.458 595.192C324.228 596.69 316.493 598.119 309.335 599.348C302.117 600.971 295.501 602.048 289.561 602.447C280.927 602.513 266.849 597.351 261.24 591.964C257.517 587.685 254.234 582.45 251.358 576.407C248.168 570.074 245.246 563.029 242.595 555.433C239.514 547.655 236.634 539.433 234.006 530.908C230.969 522.304 228.227 513.457 225.923 504.506C223.391 495.52 221.589 486.868 220.566 478.638C219.601 470.38 219.579 462.525 220.525 455.092C221.72 447.616 223.949 440.529 227.156 433.857C230.672 427.097 235.145 420.714 240.472 414.729C246.063 408.657 252.421 402.969 259.399 397.751C266.547 392.469 274.211 387.695 282.24 383.54C290.329 379.457 298.698 376.08 307.188 373.563C315.659 371.294 324.197 370.013 332.689 369.872C341.109 370.15 349.071 371.633 356.537 374.206C363.955 377.22 370.918 381.287 377.398 386.249C383.887 391.571 389.967 397.701 395.628 404.476C401.362 411.478 406.753 419.037 411.752 426.995C416.903 435.074 421.716 443.497 426.158 452.115C430.764 460.785 435.001 469.641 438.782 478.545C442.684 487.477 446.103 496.47 448.914 505.39C451.723 514.319 453.852 523.182 455.153 531.83Z" stroke="url(#paint14_linear_1835_354)" stroke-width="2" stroke-linecap="round" stroke-dasharray="8 10"/>
<path opacity="0.62" d="M444.106 534.428C444.67 542.32 444.408 549.518 443.38 555.956C442.144 562.31 440.123 567.863 437.404 572.56C432.662 578.995 419.796 587.277 411.975 589.192C406.454 590.167 400.546 590.429 394.338 590.043C387.988 589.843 381.365 589.2 374.563 588.218C367.597 587.69 360.459 587.033 353.248 586.341C345.863 586.3 338.406 586.344 330.991 586.442C323.427 587.206 316.291 587.884 309.668 588.377C302.96 589.214 296.804 589.612 291.243 589.461C283.146 588.871 269.881 583.476 264.608 578.494C261.133 574.612 258.105 569.904 255.494 564.471C252.646 558.794 250.111 552.452 247.893 545.581C245.342 538.536 243.054 531.041 241.084 523.226C238.792 515.303 236.838 507.128 235.344 498.802C233.66 490.434 232.638 482.358 232.317 474.639C232.017 466.906 232.546 459.531 233.9 452.567C235.429 445.596 237.846 438.997 241.106 432.813C244.6 426.599 248.926 420.77 253.98 415.377C259.253 409.941 265.204 404.93 271.698 400.412C278.323 395.877 285.428 391.877 292.85 388.493C300.317 385.191 308.037 382.59 315.856 380.802C323.651 379.245 331.5 378.589 339.28 378.972C346.986 379.729 354.247 381.54 361.032 384.308C367.749 387.46 374.023 391.54 379.831 396.405C385.621 401.594 391.004 407.509 395.978 413.996C401.001 420.712 405.656 427.936 409.948 435.524C414.329 443.241 418.376 451.274 422.05 459.478C425.834 467.753 429.249 476.18 432.244 484.615C435.311 493.092 437.914 501.575 439.956 509.923C441.995 518.289 443.414 526.499 444.106 534.428Z" stroke="url(#paint15_linear_1835_354)" stroke-width="2" stroke-linecap="round" stroke-dasharray="5 4"/>
<path opacity="0.66" d="M433.477 535.205C433.549 542.341 432.936 548.763 431.694 554.443C429.273 562.462 421.197 574.391 415.724 578.252C409.547 581.219 395.051 583.479 386.934 583.091C381.288 582.821 375.399 582.155 369.349 581.163C363.137 580.558 356.752 579.79 350.288 578.915C343.644 578.578 336.924 578.219 330.229 577.839C323.365 577.992 316.876 578.035 310.839 577.898C304.702 578.065 299.039 577.854 293.914 577.203C286.415 576.011 274.056 570.277 269.131 565.578C265.913 562.009 263.136 557.738 260.785 552.846C258.247 547.74 256.059 542.054 254.229 535.883C252.151 529.546 250.386 522.784 248.987 515.696C247.337 508.515 246.066 501.059 245.267 493.447C244.326 485.784 243.978 478.362 244.261 471.249C244.543 464.136 245.534 457.346 247.232 450.942C249.052 444.537 251.631 438.499 254.911 432.872C258.368 427.243 262.529 422.01 267.308 417.22C272.255 412.424 277.774 408.067 283.769 404.223C289.858 400.407 296.364 397.113 303.142 394.427C309.954 391.844 316.972 389.933 324.09 388.774C331.156 387.821 338.265 387.713 345.311 388.531C352.263 389.662 358.801 391.716 364.889 394.597C370.888 397.803 376.479 401.822 381.623 406.53C386.726 411.504 391.439 417.129 395.753 423.256C400.077 429.597 404.044 436.388 407.658 443.498C411.314 450.742 414.638 458.265 417.604 465.932C420.626 473.689 423.304 481.547 425.569 489.392C427.875 497.287 429.748 505.146 431.127 512.829C432.482 520.532 433.297 528.028 433.477 535.205Z" stroke="url(#paint16_linear_1835_354)" stroke-width="2" stroke-linecap="round" stroke-dasharray="2 7"/>
<path opacity="0.7" d="M423.404 534.442C422.645 543.64 418.31 558.452 414.833 563.981C410.703 568.676 400.239 574.394 394.075 575.565C387.427 576.185 372.719 575.167 364.791 573.883C359.303 573.235 353.652 572.393 347.923 571.407C342.032 570.825 336.049 570.16 330.083 569.398C323.953 569.048 318.148 568.564 312.728 567.913C304.653 567.142 290.618 563.962 284.757 561.24C279.291 557.872 270.573 548.104 267.219 541.724C264.987 537.14 263.126 532.052 261.651 526.541C259.994 520.885 258.68 514.848 257.762 508.514C256.671 502.086 255.968 495.408 255.755 488.563C255.417 481.671 255.637 474.98 256.397 468.569C257.16 462.149 258.539 456.028 260.501 450.249C262.551 444.485 265.227 439.071 268.491 434.059C271.875 429.054 275.847 424.45 280.329 420.276C284.923 416.134 290.004 412.432 295.476 409.228C301.015 406.068 306.889 403.432 313.005 401.381C319.118 399.442 325.414 398.121 331.786 397.502C338.099 397.068 344.449 397.388 350.713 398.537C356.889 399.947 362.686 402.161 368.074 405.084C373.361 408.271 378.263 412.156 382.754 416.626C387.186 421.329 391.249 426.584 394.935 432.285C398.604 438.158 401.931 444.434 404.9 450.982C407.895 457.663 410.558 464.57 412.879 471.603C415.218 478.719 417.233 485.911 418.854 493.069C420.504 500.276 421.752 507.416 422.554 514.36C423.333 521.313 423.635 528.05 423.404 534.442Z" stroke="url(#paint17_linear_1835_354)" stroke-width="2" stroke-linecap="round" stroke-dasharray="4 4"/>
<path opacity="0.73" d="M413.969 532.461C412.653 543.575 409.529 552.149 404.998 558.095C400.057 563.833 393.712 567.062 386.432 567.977C378.701 569.066 370.02 568.401 360.84 566.383C351.094 565.296 340.787 563.502 330.478 561.073C319.587 559.888 309.88 557.912 301.698 554.997C293.278 552.344 286.454 548.024 281.425 542.072C276.097 535.708 272.299 527.483 270.128 517.82C267.439 507.713 266.208 496.346 266.789 484.328C267.035 472.147 269.388 460.73 273.634 450.565C278.073 440.469 284.637 431.671 292.878 424.573C301.387 417.636 311.419 412.415 322.259 409.361C333.068 406.692 344.367 406.416 355.419 409.011C366.1 412.412 375.423 418.534 383.201 426.697C390.701 435.592 396.901 446.318 401.689 458.034C406.452 470.187 410.009 483.073 412.169 495.814C414.318 508.707 415.027 521.23 413.969 532.461Z" stroke="url(#paint18_linear_1835_354)" stroke-width="2" stroke-linecap="round" stroke-dasharray="5 1"/>
<path opacity="0.77" d="M405.185 529.565C403.465 539.116 400.334 546.448 396.116 551.505C391.601 556.419 385.981 559.201 379.626 560.023C372.904 560.997 365.387 560.434 357.474 558.622C349.083 557.498 340.226 555.563 331.363 552.846C322.018 551.027 313.654 548.432 306.59 545.053C299.283 541.915 293.35 537.469 288.979 531.796C284.381 525.857 281.198 518.48 279.584 509.992C277.61 501.166 277.088 491.315 278.326 480.964C279.308 470.472 282.14 460.662 286.548 451.978C291.041 443.362 297.265 435.957 304.787 430.113C312.445 424.446 321.299 420.394 330.749 418.317C340.125 416.594 349.846 416.991 359.312 419.898C368.445 423.431 376.362 429.238 382.889 436.73C389.157 444.768 394.217 454.326 397.989 464.685C401.669 475.398 404.215 486.702 405.503 497.812C406.734 509.042 406.699 519.891 405.185 529.565Z" stroke="url(#paint19_linear_1835_354)" stroke-width="2" stroke-linecap="round" stroke-dasharray="9 9"/>
<path opacity="0.81" d="M396.987 525.998C395.047 534.038 392.004 540.186 388.13 544.45C384.048 548.612 379.122 551.006 373.621 551.755C367.837 552.648 361.429 552.202 354.72 550.602C347.636 549.487 340.171 547.506 332.747 544.676C324.92 542.471 317.933 539.501 312.026 535.887C305.898 532.468 300.93 528.035 297.3 522.703C293.497 517.228 290.961 510.671 289.863 503.321C288.531 495.747 288.563 487.396 290.215 478.707C291.696 469.908 294.763 461.74 299.095 454.587C303.457 447.485 309.18 441.48 315.866 436.877C322.604 432.423 330.243 429.434 338.282 428.2C346.218 427.238 354.384 428.131 362.281 431.161C369.89 434.637 376.427 439.975 381.768 446.662C386.867 453.741 390.884 462.043 393.745 470.96C396.502 480.137 398.217 489.771 398.816 499.204C399.351 508.721 398.786 517.867 396.987 525.998Z" stroke="url(#paint20_linear_1835_354)" stroke-width="2" stroke-linecap="round" stroke-dasharray="8 2"/>
<path opacity="0.85" d="M389.285 521.992C385.845 531.054 375.2 541.545 368.397 543.251C363.513 544.035 358.164 543.696 352.609 542.316C346.762 541.25 340.674 539.339 334.638 536.559C328.32 534.187 322.697 531.107 317.96 527.494C313.053 524.02 309.094 519.783 306.248 514.917C303.27 509.975 301.388 504.28 300.755 498.07C299.98 491.709 300.423 484.832 302.273 477.79C304.015 470.656 307.053 464.127 311.092 458.48C315.119 452.88 320.177 448.239 325.927 444.804C331.675 441.489 338.056 439.444 344.676 438.885C351.186 438.532 357.823 439.725 364.186 442.673C370.317 445.934 375.537 450.661 379.747 456.426C383.754 462.449 386.834 469.428 388.915 476.855C390.886 484.443 391.951 492.383 392.05 500.12C392.085 507.898 391.189 515.366 389.285 521.992Z" stroke="url(#paint21_linear_1835_354)" stroke-width="2" stroke-linecap="round" stroke-dasharray="3 4"/>
<path opacity="0.89" d="M381.946 517.677C378.044 527.852 371.52 533.402 363.941 534.535C355.809 535.928 346.245 533.855 337.108 528.496C327.161 524.087 319.659 516.988 315.641 508.531C311.26 499.936 310.436 489.237 314.227 478.404C317.737 467.328 325.334 458.639 334.771 453.827C344.087 449.345 354.975 449.116 364.904 454.318C374.177 460.277 380.5 470.61 383.428 482.32C386.006 494.407 385.613 507.3 381.946 517.677Z" stroke="url(#paint22_linear_1835_354)" stroke-width="2" stroke-linecap="round"/>
<path opacity="0.92" d="M374.85 513.153C371.478 520.593 366.201 524.733 360.26 525.634C354 526.679 346.845 524.98 340.212 520.535C333.097 516.573 327.903 510.508 325.314 503.624C322.5 496.69 322.405 488.535 325.745 480.7C328.946 472.728 335.016 466.787 342.194 463.829C349.248 461.059 357.228 461.502 364.325 465.897C371.003 470.712 375.41 478.583 377.237 487.286C378.826 496.178 378.09 505.582 374.85 513.153Z" stroke="url(#paint23_linear_1835_354)" stroke-width="2" stroke-linecap="round" stroke-dasharray="5 10"/>
<path opacity="0.96" d="M367.881 508.415C362.709 517.999 352.318 519.444 344.034 512.729C334.861 506.8 331.309 494.706 336.486 484.764C341.43 474.556 353.237 470.889 362.364 477.223C370.682 484.261 372.837 498.572 367.881 508.415Z" stroke="url(#paint24_linear_1835_354)" stroke-width="2" stroke-linecap="round" stroke-dasharray="9 5"/>
</g>
<defs>
<linearGradient id="paint0_linear_1835_354" x1="512.018" y1="307.714" x2="156.819" y2="702.475" gradientUnits="userSpaceOnUse">
<stop stop-color="#1F89DB"/>
<stop offset="1" stop-color="#F42A8B"/>
</linearGradient>
<linearGradient id="paint1_linear_1835_354" x1="517.77" y1="326.731" x2="150.065" y2="681.566" gradientUnits="userSpaceOnUse">
<stop stop-color="#1F89DB"/>
<stop offset="1" stop-color="#F42A8B"/>
</linearGradient>
<linearGradient id="paint2_linear_1835_354" x1="521.75" y1="345.561" x2="145.371" y2="660.705" gradientUnits="userSpaceOnUse">
<stop stop-color="#1F89DB"/>
<stop offset="1" stop-color="#F42A8B"/>
</linearGradient>
<linearGradient id="paint3_linear_1835_354" x1="524.01" y1="364.045" x2="142.684" y2="640.075" gradientUnits="userSpaceOnUse">
<stop stop-color="#1F89DB"/>
<stop offset="1" stop-color="#F42A8B"/>
</linearGradient>
<linearGradient id="paint4_linear_1835_354" x1="524.59" y1="381.996" x2="141.88" y2="619.838" gradientUnits="userSpaceOnUse">
<stop stop-color="#1F89DB"/>
<stop offset="1" stop-color="#F42A8B"/>
</linearGradient>
<linearGradient id="paint5_linear_1835_354" x1="523.59" y1="399.273" x2="142.912" y2="600.148" gradientUnits="userSpaceOnUse">
<stop stop-color="#1F89DB"/>
<stop offset="1" stop-color="#F42A8B"/>
</linearGradient>
<linearGradient id="paint6_linear_1835_354" x1="520.97" y1="415.43" x2="145.759" y2="580.758" gradientUnits="userSpaceOnUse">
<stop stop-color="#1F89DB"/>
<stop offset="1" stop-color="#F42A8B"/>
</linearGradient>
<linearGradient id="paint7_linear_1835_354" x1="517.24" y1="431.234" x2="150.475" y2="562.841" gradientUnits="userSpaceOnUse">
<stop stop-color="#1F89DB"/>
<stop offset="1" stop-color="#F42A8B"/>
</linearGradient>
<linearGradient id="paint8_linear_1835_354" x1="512.234" y1="446.037" x2="156.457" y2="546.039" gradientUnits="userSpaceOnUse">
<stop stop-color="#1F89DB"/>
<stop offset="1" stop-color="#F42A8B"/>
</linearGradient>
<linearGradient id="paint9_linear_1835_354" x1="506.004" y1="459.405" x2="163.817" y2="530.017" gradientUnits="userSpaceOnUse">
<stop stop-color="#1F89DB"/>
<stop offset="1" stop-color="#F42A8B"/>
</linearGradient>
<linearGradient id="paint10_linear_1835_354" x1="498.875" y1="472.131" x2="172.592" y2="515.78" gradientUnits="userSpaceOnUse">
<stop stop-color="#1F89DB"/>
<stop offset="1" stop-color="#F42A8B"/>
</linearGradient>
<linearGradient id="paint11_linear_1835_354" x1="490.817" y1="483.434" x2="182.555" y2="502.718" gradientUnits="userSpaceOnUse">
<stop stop-color="#1F89DB"/>
<stop offset="1" stop-color="#F42A8B"/>
</linearGradient>
<linearGradient id="paint12_linear_1835_354" x1="482.014" y1="493.366" x2="193.533" y2="491.048" gradientUnits="userSpaceOnUse">
<stop stop-color="#1F89DB"/>
<stop offset="1" stop-color="#F42A8B"/>
</linearGradient>
<linearGradient id="paint13_linear_1835_354" x1="472.592" y1="501.963" x2="205.379" y2="480.931" gradientUnits="userSpaceOnUse">
<stop stop-color="#1F89DB"/>
<stop offset="1" stop-color="#F42A8B"/>
</linearGradient>
<linearGradient id="paint14_linear_1835_354" x1="462.774" y1="508.807" x2="217.979" y2="472.046" gradientUnits="userSpaceOnUse">
<stop stop-color="#1F89DB"/>
<stop offset="1" stop-color="#F42A8B"/>
</linearGradient>
<linearGradient id="paint15_linear_1835_354" x1="452.608" y1="514.721" x2="231.063" y2="465.279" gradientUnits="userSpaceOnUse">
<stop stop-color="#1F89DB"/>
<stop offset="1" stop-color="#F42A8B"/>
</linearGradient>
<linearGradient id="paint16_linear_1835_354" x1="442.193" y1="519.272" x2="244.448" y2="460.245" gradientUnits="userSpaceOnUse">
<stop stop-color="#1F89DB"/>
<stop offset="1" stop-color="#F42A8B"/>
</linearGradient>
<linearGradient id="paint17_linear_1835_354" x1="431.109" y1="522.339" x2="257.927" y2="457.036" gradientUnits="userSpaceOnUse">
<stop stop-color="#1F89DB"/>
<stop offset="1" stop-color="#F42A8B"/>
</linearGradient>
<linearGradient id="paint18_linear_1835_354" x1="421.3" y1="524.633" x2="271.291" y2="455.635" gradientUnits="userSpaceOnUse">
<stop stop-color="#1F89DB"/>
<stop offset="1" stop-color="#F42A8B"/>
</linearGradient>
<linearGradient id="paint19_linear_1835_354" x1="411.185" y1="525.235" x2="284.467" y2="455.743" gradientUnits="userSpaceOnUse">
<stop stop-color="#1F89DB"/>
<stop offset="1" stop-color="#F42A8B"/>
</linearGradient>
<linearGradient id="paint20_linear_1835_354" x1="401.358" y1="524.626" x2="297.178" y2="457.538" gradientUnits="userSpaceOnUse">
<stop stop-color="#1F89DB"/>
<stop offset="1" stop-color="#F42A8B"/>
</linearGradient>
<linearGradient id="paint21_linear_1835_354" x1="390.747" y1="521.969" x2="309.235" y2="460.945" gradientUnits="userSpaceOnUse">
<stop stop-color="#1F89DB"/>
<stop offset="1" stop-color="#F42A8B"/>
</linearGradient>
<linearGradient id="paint22_linear_1835_354" x1="382.739" y1="520.014" x2="320.322" y2="466.022" gradientUnits="userSpaceOnUse">
<stop stop-color="#1F89DB"/>
<stop offset="1" stop-color="#F42A8B"/>
</linearGradient>
<linearGradient id="paint23_linear_1835_354" x1="374.448" y1="516.007" x2="330.579" y2="472.29" gradientUnits="userSpaceOnUse">
<stop stop-color="#1F89DB"/>
<stop offset="1" stop-color="#F42A8B"/>
</linearGradient>
<linearGradient id="paint24_linear_1835_354" x1="366.736" y1="510.992" x2="339.628" y2="479.873" gradientUnits="userSpaceOnUse">
<stop stop-color="#1F89DB"/>
<stop offset="1" stop-color="#F42A8B"/>
</linearGradient>
<clipPath id="clip0_1835_354">
<rect width="709.169" height="709.169" fill="white" transform="translate(308.346) rotate(41.9804)"/>
</clipPath>
</defs>
</svg>
