<svg width="173" height="67" viewBox="0 0 173 67" fill="none" xmlns="http://www.w3.org/2000/svg">
<path d="M15.4403 33.4942C15.3976 33.0564 15.2054 32.6293 14.8851 32.3197C14.7997 32.2342 14.6929 32.1488 14.5861 32.0741L6.46017 27.1409C5.90492 26.8098 5.56322 26.1905 5.56322 25.5498V3.60662C5.52051 3.16882 5.3283 2.7417 5.00797 2.43204C4.92254 2.34662 4.81576 2.26119 4.70898 2.18645L1.30271 0.125599C1.03576 -0.03457 0.704746 -0.045248 0.437797 0.114922C0.16017 0.264413 0 0.552718 0 0.862379V29.5648C0 30.2375 0.352374 30.8675 0.928984 31.2092L7.91237 35.4483C8.46763 35.79 8.80932 36.3987 8.80932 37.0393V43.3393V43.3714V43.6703C8.85203 44.1081 9.04424 44.5353 9.36458 44.8449C9.45 44.9303 9.55678 45.0158 9.66356 45.0905L14.0949 47.7707L14.1376 47.792C14.159 47.8027 14.1697 47.8134 14.191 47.8241C14.2017 47.8348 14.2124 47.8348 14.2231 47.8454C14.3405 47.8988 14.458 47.9202 14.5861 47.9202C14.7463 47.9202 14.9064 47.8775 15.0453 47.7814C15.2908 47.6212 15.4403 47.3542 15.4403 47.0553V33.7932V33.4942Z" fill="white"/>
<path d="M23.6408 14.573C23.5981 14.1352 23.4059 13.7081 23.0855 13.3984C23.0001 13.313 22.8933 13.2276 22.7866 13.1528L9.59926 5.15505V5.14437H9.57791L9.54587 5.12302C9.52452 5.11234 9.51384 5.10166 9.49248 5.09098H9.48181C9.47113 5.09098 9.47113 5.0803 9.46045 5.0803C9.1935 4.95217 8.88384 4.97352 8.63825 5.13369C8.39265 5.29386 8.24316 5.56081 8.24316 5.8598V18.7695L8.26452 18.7801V21.7913C8.30723 22.2291 8.49943 22.6562 8.81977 22.9659C8.9052 23.0513 9.01198 23.1367 9.11876 23.2115L17.202 28.1234C17.7572 28.4544 18.0989 29.0737 18.0989 29.7144V62.6025C18.1416 63.0403 18.3338 63.4674 18.6542 63.7771C18.7396 63.8625 18.8464 63.9479 18.9532 64.0227L22.3167 66.0622L22.3594 66.0835C22.3808 66.0942 22.3915 66.1049 22.4128 66.1156C22.4235 66.1262 22.4342 66.1262 22.4449 66.1262C22.5623 66.1796 22.6798 66.201 22.8079 66.201C22.9681 66.201 23.1283 66.1583 23.2671 66.0622C23.5127 65.902 23.6621 65.6351 23.6621 65.3361V18.8228L23.6408 18.8122V14.573Z" fill="white"/>
<path d="M49.6417 0.114725C49.3641 -0.0347668 49.0437 -0.0347668 48.7768 0.125403L45.3705 2.18625C45.2637 2.261 45.1569 2.33574 45.0715 2.43184C44.7512 2.75218 44.559 3.16862 44.5163 3.60642V25.539C44.5163 26.1903 44.1746 26.799 43.6193 27.13L35.4934 32.0632C35.3866 32.1379 35.2798 32.2127 35.1944 32.3088C34.8741 32.6291 34.6819 33.0456 34.6392 33.4834V33.7824V47.0444C34.6392 47.3434 34.7886 47.6103 35.0342 47.7705C35.1731 47.8559 35.3332 47.9093 35.4934 47.9093C35.6109 47.9093 35.739 47.8879 35.8564 47.8346C35.8671 47.8346 35.8778 47.8239 35.8885 47.8132C35.9098 47.8025 35.9205 47.7918 35.9419 47.7812L40.3092 45.1651L40.4159 45.101C40.5227 45.0262 40.6295 44.9515 40.7149 44.8554C41.0353 44.5351 41.2275 44.1186 41.2702 43.6808V43.3818V37.0498C41.2702 36.3985 41.6119 35.7898 42.1671 35.4588L49.1505 31.2196C49.7271 30.8673 50.0795 30.2373 50.0795 29.5752V0.862182C50.0795 0.541843 49.9193 0.264216 49.6417 0.114725Z" fill="white"/>
<path d="M40.9609 23.2008C41.0676 23.1261 41.1744 23.0513 41.2599 22.9552C41.5802 22.6349 41.7724 22.2184 41.8151 21.7806V18.7801L41.8365 18.7695V5.8598C41.8365 5.56081 41.687 5.29386 41.4414 5.13369C41.1851 4.97352 40.8861 4.95217 40.6192 5.0803C40.6085 5.0803 40.6085 5.09098 40.5978 5.09098L40.5871 5.10166C40.5658 5.11234 40.5551 5.12302 40.5337 5.13369L40.5017 5.15505H40.4804V5.16573L27.3998 13.0995L27.2931 13.1635C27.1863 13.2383 27.0795 13.313 26.9941 13.4091C26.6737 13.7295 26.4815 14.1459 26.4388 14.5837V18.8122L26.4175 18.8228V65.3467C26.4175 65.6457 26.567 65.9127 26.8126 66.0728C26.9514 66.1689 27.1115 66.2117 27.2717 66.2117C27.3892 66.2117 27.5173 66.1903 27.6348 66.1369C27.6454 66.1369 27.6561 66.1262 27.6668 66.1156C27.6882 66.1049 27.6988 66.0942 27.7202 66.0835L31.1265 64.0227C31.2332 63.9479 31.34 63.8732 31.4254 63.7771C31.7458 63.4567 31.938 63.0403 31.9807 62.6025V29.7144C31.9807 29.063 32.3224 28.4544 32.8777 28.1234L40.8541 23.2862L40.9609 23.2008Z" fill="white"/>
<path d="M56.0658 46.0869V46.3111C56.0551 46.3111 56.0551 46.3112 56.0444 46.3005C56.0551 46.2257 56.0658 46.151 56.0658 46.0869Z" fill="white"/>
<path d="M52.4351 39.7331C52.4351 40.4805 51.8264 41.0892 51.079 41.0892H48.3561C47.6086 41.0892 47 40.4805 47 39.7331C47 38.9856 47.6086 38.377 48.3561 38.377H51.079C51.8264 38.377 52.4351 38.9856 52.4351 39.7331Z" fill="white"/>
<path d="M56.0658 46.0869V46.3111C56.0551 46.3111 56.0551 46.3112 56.0444 46.3005C56.0551 46.2257 56.0658 46.151 56.0658 46.0869Z" fill="white"/>
<path d="M61.5002 42.4559V58.7719C61.5002 60.9929 60.4324 62.9683 58.7773 64.207C57.6455 65.0612 56.2253 65.5631 54.6983 65.5631C53.1714 65.5631 51.7512 65.0612 50.6194 64.207C48.9643 62.9683 47.8965 60.9929 47.8965 58.7719V54.2444C47.8965 53.497 48.5051 52.8883 49.2526 52.8883C49.7331 52.8883 50.1495 53.1339 50.3951 53.5076C50.5339 53.7212 50.6087 53.9775 50.6087 54.2444V58.7719C50.6087 61.0249 52.4346 62.8509 54.6877 62.8509C56.9407 62.8509 58.7667 61.0249 58.7667 58.7719V42.4559C58.7667 41.7085 58.158 41.0998 57.4106 41.0998C56.6631 41.0998 56.0545 41.7085 56.0545 42.4559V46.0864C56.0545 46.1612 56.0438 46.2359 56.0331 46.3C55.9263 46.9514 55.3711 47.4425 54.6877 47.4425C53.9402 47.4425 53.3316 46.8339 53.3316 46.0864V42.4559C53.3316 40.6834 54.4634 39.1671 56.0545 38.6119C56.4816 38.4624 56.9407 38.377 57.4106 38.377C57.8911 38.377 58.3502 38.4624 58.7667 38.6119C60.3683 39.1671 61.5002 40.6834 61.5002 42.4559Z" fill="white"/>
<path d="M92.7765 60.1387C93.524 60.1387 94.1326 60.7473 94.1326 61.4948V64.2177C94.1326 64.9651 93.524 65.5738 92.7765 65.5738C92.0291 65.5738 91.4204 64.9651 91.4204 64.2177V61.4948C91.4204 60.7473 92.0291 60.1387 92.7765 60.1387Z" fill="white"/>
<path d="M94.1322 45.1789V52.4292C94.1322 53.1767 93.5235 53.7853 92.7761 53.7853C92.0286 53.7853 91.42 53.1767 91.42 52.4292V45.1789C91.42 42.9258 89.594 41.0999 87.341 41.0999C85.0879 41.0999 83.262 42.9258 83.262 45.1789V64.2177C83.262 64.9652 82.6534 65.5738 81.9059 65.5738C81.1584 65.5738 80.5498 64.9652 80.5498 64.2177V45.1789C80.5498 42.9579 81.6176 40.9824 83.2727 39.7438C84.4046 38.8896 85.8247 38.3877 87.3517 38.3877C88.8786 38.3877 90.2774 38.8789 91.42 39.7331C93.0644 40.9718 94.1322 42.9472 94.1322 45.1789Z" fill="white"/>
<path d="M171.644 60.1387C172.392 60.1387 173 60.7473 173 61.4948V64.2177C173 64.9651 172.392 65.5738 171.644 65.5738C170.897 65.5738 170.288 64.9651 170.288 64.2177V61.4948C170.288 60.7473 170.897 60.1387 171.644 60.1387Z" fill="white"/>
<path d="M173 45.1789V52.4292C173 53.1767 172.391 53.7853 171.644 53.7853C170.896 53.7853 170.288 53.1767 170.288 52.4292V45.1789C170.288 42.9258 168.462 41.0999 166.209 41.0999C163.956 41.0999 162.13 42.9258 162.13 45.1789V64.2177C162.13 64.9652 161.521 65.5738 160.774 65.5738C160.026 65.5738 159.417 64.9652 159.417 64.2177V45.1789C159.417 42.9579 160.485 40.9824 162.14 39.7438C163.272 38.8896 164.692 38.3877 166.219 38.3877C167.746 38.3877 169.166 38.8896 170.298 39.7438C171.932 40.9718 173 42.9472 173 45.1789Z" fill="white"/>
<path d="M124.052 43.812V52.4291C124.052 53.1766 123.444 53.7852 122.696 53.7852C121.949 53.7852 121.34 53.1766 121.34 52.4291V43.812C121.34 42.3064 120.123 41.0891 118.617 41.0891C117.112 41.0891 115.894 42.3064 115.894 43.812V52.4291C115.894 53.1766 115.286 53.7852 114.538 53.7852C113.791 53.7852 113.182 53.1766 113.182 52.4291V43.812C113.182 42.3064 111.965 41.0891 110.459 41.0891C108.986 41.0891 107.779 42.2743 107.736 43.7372C107.736 43.7265 107.736 43.7159 107.736 43.7052V43.7799C107.736 43.7906 107.736 43.8013 107.736 43.812C107.736 43.8227 107.736 43.8333 107.736 43.844V52.4184C107.736 53.1659 107.128 53.7745 106.38 53.7745C105.633 53.7745 105.024 53.1659 105.024 52.4184V43.8013C105.024 42.2957 103.807 41.0784 102.301 41.0784C100.796 41.0784 99.5784 42.2957 99.5784 43.8013V51.0516C99.5784 57.5652 104.853 62.8401 111.367 62.8401C111.388 62.8401 111.42 62.8401 111.442 62.8401H114.528C115.275 62.8401 115.884 63.4487 115.884 64.1962C115.884 64.9437 115.275 65.5523 114.528 65.5523H111.367C106.508 65.5523 102.216 63.1604 99.5784 59.4979C97.8699 57.1167 96.8661 54.2016 96.8555 51.0516V43.8013C96.8555 41.7938 97.9446 40.032 99.5784 39.0923C100.379 38.6332 101.308 38.3662 102.301 38.3662C103.294 38.3662 104.223 38.6332 105.024 39.0923C105.537 39.3913 105.996 39.765 106.38 40.2028C106.765 39.765 107.224 39.3913 107.736 39.0923C108.537 38.6332 109.466 38.3662 110.459 38.3662C111.452 38.3662 112.381 38.6332 113.182 39.0923C113.695 39.3913 114.154 39.765 114.538 40.2028C114.923 39.765 115.382 39.3806 115.894 39.0923C116.695 38.6332 117.624 38.3662 118.617 38.3662C119.61 38.3662 120.539 38.6332 121.34 39.0923C122.952 40.0427 124.052 41.8045 124.052 43.812Z" fill="white"/>
<path d="M77.4327 52.8776C77.6783 53.5824 77.8171 54.3512 77.8171 55.1414V58.7719C77.8171 60.9929 76.7493 62.9683 75.0942 64.207C73.9624 65.0612 72.5422 65.5631 71.0152 65.5631C69.4883 65.5631 68.0681 65.0612 66.9363 64.207C65.2812 62.9683 64.2134 60.9929 64.2134 58.7719V42.4559C64.2134 41.9754 64.2988 41.5163 64.4483 41.0998C64.8541 39.9359 65.7724 39.0176 66.9363 38.6119C67.3634 38.4624 67.8225 38.377 68.2924 38.377H76.4503C77.1978 38.377 77.8064 38.9856 77.8064 39.7331C77.8064 40.4805 77.1978 41.0892 76.4503 41.0892H68.2924C67.5449 41.0892 66.9363 41.6978 66.9363 42.4453V58.7612C66.9363 59.6048 67.1925 60.3736 67.6197 61.0249C68.3564 62.1141 69.5951 62.8402 71.0152 62.8402C72.4247 62.8402 73.6741 62.1248 74.4108 61.0249C74.8486 60.3736 75.0942 59.5941 75.0942 58.7612V55.1307C75.0942 54.2871 74.838 53.5076 74.4108 52.867C73.6741 51.7778 72.4354 51.0517 71.0152 51.0517C70.2678 51.0517 69.6591 50.4431 69.6591 49.6956C69.6591 48.9481 70.2678 48.3395 71.0152 48.3395C73.9837 48.3502 76.5037 50.2402 77.4327 52.8776Z" fill="white"/>
<path d="M130.513 39.8828C130.523 39.9362 130.534 39.9789 130.545 40.0216C130.555 40.0537 130.566 40.0964 130.587 40.1284C130.651 40.2886 130.747 40.4487 130.886 40.5769L130.897 40.5876C131.111 40.8011 131.538 41.2282 131.911 41.602C132.445 42.1359 133.299 42.1359 133.833 41.602C134.367 41.0681 134.367 40.2138 133.833 39.6799L132.808 38.6549C132.787 38.6335 132.776 38.6228 132.755 38.6015C132.723 38.5694 132.691 38.5374 132.648 38.516C132.627 38.5054 132.616 38.4947 132.595 38.4733C132.573 38.4626 132.552 38.452 132.541 38.4413C132.52 38.4306 132.499 38.4199 132.488 38.4093C132.456 38.3879 132.413 38.3772 132.371 38.3559C132.349 38.3452 132.338 38.3452 132.317 38.3345C132.306 38.3345 132.306 38.3345 132.296 38.3238C132.285 38.3238 132.264 38.3132 132.253 38.3132C132.21 38.3025 132.168 38.2918 132.125 38.2811C132.104 38.2811 132.093 38.2704 132.072 38.2704H132.061C132.05 38.2704 132.029 38.2704 132.018 38.2598C132.018 38.2598 132.018 38.2598 132.007 38.2598C132.007 38.2598 132.007 38.2598 131.997 38.2598H131.986H131.975H131.965H131.954C131.943 38.2598 131.933 38.2598 131.911 38.2598C131.901 38.2598 131.879 38.2598 131.869 38.2598C131.858 38.2598 131.858 38.2598 131.847 38.2598C131.837 38.2598 131.815 38.2598 131.805 38.2598C131.773 38.2598 131.73 38.2598 131.698 38.2704C131.687 38.2704 131.666 38.2704 131.655 38.2811C131.644 38.2811 131.634 38.2811 131.623 38.2918C131.612 38.2918 131.602 38.2918 131.58 38.3025C131.57 38.3025 131.559 38.3025 131.559 38.3025H131.548C131.527 38.3025 131.516 38.3132 131.495 38.3132C131.495 38.3132 131.495 38.3132 131.484 38.3132C131.463 38.3238 131.442 38.3238 131.42 38.3345C131.377 38.3452 131.335 38.3665 131.292 38.3879C131.207 38.4199 131.132 38.4733 131.057 38.5267C131.004 38.5694 130.95 38.6121 130.897 38.6655C130.598 38.9645 130.47 39.3703 130.502 39.7547C130.502 39.7974 130.502 39.8401 130.513 39.8828Z" fill="white"/>
<path d="M139.696 46.0864C139.375 45.4244 138.948 44.8264 138.446 44.3032C138.404 44.2605 138.35 44.2071 138.308 44.1644C138.073 43.9295 137.859 43.7159 137.71 43.5771C137.71 43.5771 137.71 43.5771 137.699 43.5664C137.165 43.0325 136.311 43.0325 135.777 43.5664C135.243 44.1003 135.243 44.9546 135.777 45.4885L135.788 45.4991C135.937 45.6486 136.151 45.8622 136.385 46.0971C136.428 46.1398 136.482 46.1932 136.524 46.2359C137.218 46.9727 137.645 47.9551 137.645 49.0549V58.7078C137.645 60.9608 135.82 62.7868 133.567 62.7868C131.313 62.7868 129.488 60.9608 129.488 58.7078V51.4575C129.488 50.71 128.879 50.1013 128.131 50.1013C127.651 50.1013 127.224 50.3576 126.978 50.742C126.85 50.9556 126.765 51.2012 126.765 51.4681V58.7185C126.765 60.9395 127.832 62.9149 129.488 64.1536C130.619 65.0078 132.04 65.5097 133.567 65.5097C135.093 65.5097 136.514 65.0078 137.645 64.1536C139.301 62.9149 140.368 60.9395 140.368 58.7185V49.0656C140.368 47.9871 140.123 46.9834 139.696 46.0864Z" fill="white"/>
<path d="M151.249 45.1789V48.4784C150.811 48.3929 150.352 48.3396 149.893 48.3396C149.839 48.3396 149.797 48.3396 149.743 48.3396H149.733C149.327 48.3502 148.921 48.3929 148.526 48.4784V45.1789C148.526 44.4314 147.917 43.8228 147.17 43.8228C145.963 43.8228 144.874 43.2996 144.127 42.4667C143.475 41.7406 143.091 40.7902 143.091 39.7438C143.091 38.9963 143.699 38.3877 144.447 38.3877C145.194 38.3877 145.803 38.9963 145.803 39.7438C145.803 40.4912 146.412 41.0999 147.159 41.0999C147.64 41.0999 148.099 41.1853 148.515 41.3348C149.167 41.5697 149.743 41.9541 150.192 42.4667C150.854 43.1821 151.249 44.1324 151.249 45.1789Z" fill="white"/>
<path d="M153.972 49.6959C153.181 49.0979 152.253 48.6815 151.249 48.4679C150.811 48.3825 150.352 48.3291 149.893 48.3291C149.839 48.3291 149.797 48.3291 149.743 48.3291H149.733C149.327 48.3398 148.921 48.3825 148.526 48.4679C147.832 48.6067 147.17 48.8523 146.572 49.194C146.572 49.194 146.561 49.194 146.561 49.2047C146.305 49.3542 146.049 49.5144 145.814 49.6959C144.159 50.9345 143.091 52.91 143.091 55.131V58.7615C143.091 60.9825 144.159 62.9579 145.814 64.1966C146.946 65.0508 148.366 65.5527 149.893 65.5527C151.42 65.5527 152.84 65.0508 153.972 64.1966C155.627 62.9579 156.695 60.9825 156.695 58.7615V55.131C156.684 52.91 155.616 50.9345 153.972 49.6959ZM153.278 61.0252C153.278 61.0359 153.278 61.0359 153.278 61.0252C152.541 62.125 151.302 62.8405 149.882 62.8405C148.473 62.8405 147.223 62.125 146.486 61.0252C146.049 60.3739 145.803 59.5944 145.803 58.7615V55.131C145.803 54.2874 146.059 53.5079 146.486 52.8672C147.213 51.7781 148.462 51.052 149.882 51.052C151.291 51.052 152.541 51.7674 153.278 52.8672C153.715 53.5186 153.961 54.2981 153.961 55.131V58.7615C153.972 59.605 153.715 60.3845 153.278 61.0252Z" fill="white"/>
</svg>
